PathFileType	4	(X/Y/Z)	OpenSim_Sub02_CSBaseline_Magnet.trc
DataRate	CameraRate	NumFrames	NumMarkers	Units	OrigDataRate	OrigDataStartFrame	OrigNumFrames
100	100	40	8	m	100	2647	7057
Frame#	Time	torso_imu_offset_imu	pelvis_imu_offset_imu	tibia_r_imu_offset_imu	femur_r_imu_offset_imu	tibia_l_imu_offset_imu	femur_l_imu_offset_imu	toes_r_imu_offset_imu	toes_l_imu_offset_imu
				X1	Y1	Z1	X2	Y2	Z2	X3	Y3	Z3	X4	Y4	Z4	X5	Y5	Z5	X6	Y6	Z6	X7	Y7	Z7	X8		Y8	Z8	

2647	26.46000000	-0.92799831	-0.18113962	-0.09162843	-0.63599876	0.22551779	-0.63407189	-0.60196665	-0.51096726	-0.17139036	-0.78937642	-0.23923609	0.18900094	-0.07522483	0.79030242	-0.25484513	-0.65705903	0.14123548	0.12185540	-0.59491521	-0.30380614	-0.44496707	-0.72939308	0.06379311	0.36830345
2648	26.47000000	-0.93003666	-0.17873444	-0.08811067	-0.64281382	0.21604678	-0.63454107	-0.59597022	-0.51752385	-0.17686697	-0.78754139	-0.24182795	0.19894670	-0.06553099	0.78458061	-0.26302393	-0.66726346	0.12339017	0.12360494	-0.59188639	-0.30237763	-0.43562618	-0.71581961	0.08511721	0.38050314
2649	26.48000000	-0.93088502	-0.17812890	-0.08096033	-0.64464352	0.20891305	-0.63617809	-0.59146915	-0.52410713	-0.17827745	-0.78457803	-0.24391078	0.20430176	-0.06411052	0.78184445	-0.27268685	-0.67806511	0.10643377	0.12804922	-0.59114935	-0.30300127	-0.43773985	-0.72530870	0.10025227	0.35881060
2650	26.49000000	-0.92945617	-0.17897620	-0.07320401	-0.64702059	0.20502590	-0.63592681	-0.58846850	-0.52862223	-0.17818541	-0.78289023	-0.25191667	0.20594169	-0.06239768	0.78138176	-0.28281949	-0.68006873	0.08505719	0.13757631	-0.59128473	-0.30679933	-0.43335515	-0.73470626	0.10709761	0.33736560
2651	26.50000000	-0.93194606	-0.17398784	-0.07544706	-0.65408279	0.20078894	-0.63066779	-0.58779028	-0.52787869	-0.16915249	-0.77704321	-0.26029154	0.20646497	-0.06199301	0.77987167	-0.28458866	-0.68219846	0.07350477	0.14368244	-0.59690023	-0.30379302	-0.43481432	-0.74796897	0.10706718	0.31214863
2652	26.51000000	-0.93514504	-0.17426468	-0.06939632	-0.65317374	0.19579704	-0.62819629	-0.58325446	-0.53755734	-0.16623246	-0.77853771	-0.26925783	0.21025144	-0.06004076	0.77847650	-0.28708735	-0.68304904	0.06592133	0.15206395	-0.59126306	-0.30905721	-0.43652183	-0.75269351	0.10192372	0.28554037
2653	26.52000000	-0.93695321	-0.17419353	-0.06352214	-0.65595384	0.19047865	-0.63053375	-0.58176976	-0.54936211	-0.15304042	-0.77421132	-0.27153663	0.21387762	-0.06542692	0.77563462	-0.30013629	-0.68416523	0.05188600	0.16235625	-0.58955684	-0.31258112	-0.43544975	-0.75987070	0.09848852	0.26796830
2654	26.53000000	-0.93336057	-0.17225056	-0.05893991	-0.65715939	0.18808806	-0.62098720	-0.58125047	-0.54497902	-0.15012790	-0.76752040	-0.28390079	0.21401945	-0.08138624	0.77254152	-0.31210877	-0.69065188	0.03969324	0.17028625	-0.59601582	-0.31300819	-0.43378101	-0.76395255	0.09610448	0.24894829
2655	26.54000000	-0.93730013	-0.17429566	-0.05081166	-0.65754441	0.17997715	-0.62691553	-0.57924219	-0.55057074	-0.15021598	-0.76844923	-0.28917038	0.21844422	-0.09754791	0.76323747	-0.31907549	-0.69375112	0.02801967	0.18045299	-0.59043325	-0.31241933	-0.42976784	-0.77430606	0.09129367	0.23091654
2656	26.55000000	-0.93590883	-0.16890203	-0.04434296	-0.65819593	0.17034185	-0.62848883	-0.57519476	-0.55464214	-0.15692598	-0.75969390	-0.29448062	0.22471764	-0.11243575	0.75981496	-0.32186098	-0.69526601	0.01138625	0.17987368	-0.59468076	-0.31599651	-0.42589751	-0.77725014	0.08257038	0.20686318
2657	26.56000000	-0.93298010	-0.17148949	-0.04574344	-0.65663554	0.16429659	-0.63399130	-0.56689703	-0.55755633	-0.16591164	-0.76190730	-0.30113245	0.22185901	-0.13692516	0.75290072	-0.32446714	-0.69669534	-0.00484145	0.18019873	-0.59907197	-0.31683661	-0.43139403	-0.78242682	0.07015918	0.18523538
2658	26.57000000	-0.93751201	-0.16702174	-0.04350789	-0.65916474	0.15866438	-0.63575272	-0.56445254	-0.55799984	-0.18172215	-0.75520882	-0.30828942	0.22105196	-0.16319037	0.75192679	-0.32639895	-0.69942214	-0.01817952	0.18682255	-0.59769644	-0.32040579	-0.43057203	-0.78826912	0.06179578	0.15398605
2659	26.58000000	-0.93400077	-0.16285024	-0.03772932	-0.66090293	0.15374247	-0.63529173	-0.56489862	-0.55876212	-0.19072313	-0.74656855	-0.31115266	0.22723683	-0.18323203	0.74595146	-0.32036833	-0.70270948	-0.03287029	0.18378665	-0.60331402	-0.32395812	-0.42335419	-0.79245799	0.04924498	0.11943442
2660	26.59000000	-0.93552590	-0.16493888	-0.03589271	-0.66314763	0.14892882	-0.63729052	-0.56401635	-0.55821732	-0.19798365	-0.74738646	-0.32156656	0.22752861	-0.20797402	0.74741851	-0.31110777	-0.70501652	-0.04234902	0.17874448	-0.60109583	-0.32799748	-0.41792546	-0.79971579	0.03427925	0.08367755
2661	26.60000000	-0.93482185	-0.16549437	-0.02970372	-0.66454985	0.14915087	-0.63491585	-0.55769614	-0.56211065	-0.20071765	-0.75104195	-0.32088999	0.22845320	-0.24356974	0.73975005	-0.29365855	-0.70861649	-0.05170667	0.17863776	-0.60467240	-0.32662848	-0.41817552	-0.80748620	0.02115882	0.04592302
2662	26.61000000	-0.93821325	-0.16157021	-0.02628537	-0.66043788	0.14675984	-0.63706214	-0.55094614	-0.56541340	-0.19377780	-0.74188145	-0.32662066	0.22401822	-0.27000932	0.72817578	-0.28222613	-0.71137975	-0.06234035	0.17782524	-0.59621430	-0.32721096	-0.41742612	-0.80965097	0.00980744	-0.00267107
2663	26.62000000	-0.93613680	-0.15489308	-0.02672273	-0.65938845	0.14454406	-0.63630611	-0.55239865	-0.57410899	-0.19169283	-0.74366333	-0.33591396	0.22675318	-0.29901871	0.72591492	-0.27843747	-0.71315324	-0.07485848	0.17874395	-0.59942503	-0.32388570	-0.41372292	-0.80946725	0.00428362	-0.04103917
2664	26.63000000	-0.94035302	-0.15679758	-0.02137098	-0.65982050	0.14326894	-0.64625378	-0.55273111	-0.57520623	-0.19095089	-0.73497870	-0.34583880	0.22975096	-0.33106529	0.70784018	-0.27078665	-0.71235943	-0.08853739	0.17426266	-0.60556600	-0.32722785	-0.41214722	-0.80787816	-0.00228532	-0.06954231
2665	26.64000000	-0.94173826	-0.14966301	-0.01983292	-0.65465028	0.14290943	-0.64110026	-0.54790686	-0.57622518	-0.19149020	-0.73155156	-0.34966870	0.22838185	-0.36092473	0.69491494	-0.26205540	-0.71891159	-0.09250195	0.17267867	-0.60899172	-0.32813019	-0.40571965	-0.80372034	-0.00463893	-0.12156167
2666	26.65000000	-0.93923372	-0.15241487	-0.01185168	-0.65921362	0.14455959	-0.64259778	-0.54354487	-0.58682244	-0.18779928	-0.73281234	-0.35393975	0.23072739	-0.39765636	0.68054379	-0.25483303	-0.71963554	-0.09632589	0.16964195	-0.61004089	-0.32987664	-0.40994597	-0.80064304	-0.00947545	-0.16097183
2667	26.66000000	-0.94293440	-0.15317632	-0.01349301	-0.65717985	0.14646066	-0.64308753	-0.53959366	-0.58850366	-0.19498867	-0.72742375	-0.35926327	0.23131991	-0.43031860	0.66042868	-0.24324438	-0.71968866	-0.10564441	0.17037186	-0.60599660	-0.33548671	-0.40430443	-0.79214285	-0.01768456	-0.20760300
2668	26.67000000	-0.94010527	-0.15282130	-0.01169823	-0.66131472	0.13936461	-0.63646123	-0.53804180	-0.58958950	-0.20222941	-0.72418305	-0.35520456	0.23774206	-0.46012805	0.64498198	-0.23812807	-0.72277983	-0.11019253	0.17140243	-0.60076052	-0.33223972	-0.40203555	-0.77908891	-0.01834958	-0.25422175
2669	26.68000000	-0.94207044	-0.14721824	-0.00856669	-0.65403892	0.14040607	-0.64478048	-0.53409975	-0.59371047	-0.20335524	-0.72162189	-0.36321421	0.24718640	-0.49092899	0.62077354	-0.23310306	-0.72160866	-0.10897252	0.16341275	-0.60308185	-0.32820809	-0.39740585	-0.75964524	-0.02787031	-0.29346956
2670	26.69000000	-0.94581869	-0.14817712	-0.00807384	-0.65375707	0.14244183	-0.64410542	-0.52537447	-0.59497713	-0.20717291	-0.71655019	-0.36987389	0.25312681	-0.51522645	0.60089308	-0.22735907	-0.71805926	-0.10641349	0.16871371	-0.60163122	-0.33466509	-0.40188926	-0.74324562	-0.03651020	-0.32343901
2671	26.70000000	-0.94352729	-0.14771455	-0.00245559	-0.65241798	0.13894464	-0.64456810	-0.52074333	-0.59894575	-0.21307364	-0.70965273	-0.36904334	0.25813920	-0.54789794	0.57453768	-0.21918051	-0.72461003	-0.10514622	0.17395149	-0.59902901	-0.33392410	-0.39490266	-0.72806200	-0.04354997	-0.35632463
2672	26.71000000	-0.94181739	-0.14440748	-0.00074705	-0.65255424	0.14143197	-0.65037306	-0.51739044	-0.60781933	-0.20904801	-0.70506788	-0.37511594	0.26604498	-0.57817093	0.54621615	-0.21487035	-0.72298482	-0.10496216	0.17167660	-0.60262005	-0.32993967	-0.39392559	-0.70767394	-0.05315907	-0.38815937
2673	26.72000000	-0.94537300	-0.14212236	-0.00110365	-0.65490839	0.14125193	-0.65098258	-0.51072287	-0.61601389	-0.20603471	-0.70558978	-0.37735332	0.27564172	-0.60133627	0.52003271	-0.20308645	-0.72106342	-0.10152623	0.16867760	-0.59411979	-0.33623132	-0.39102593	-0.68865071	-0.06861019	-0.41492513
2674	26.73000000	-0.94234729	-0.14757267	0.00104826	-0.65070630	0.14012626	-0.64956845	-0.50727537	-0.61986057	-0.21054570	-0.70108283	-0.38518094	0.27936468	-0.62439657	0.49326808	-0.19575451	-0.71938541	-0.09367157	0.17209400	-0.59233450	-0.33219673	-0.38636211	-0.66920819	-0.07415957	-0.44409408
2675	26.74000000	-0.93997982	-0.14601699	-0.00062456	-0.65137589	0.13613964	-0.64792483	-0.50095124	-0.62182860	-0.20202320	-0.69228417	-0.39133852	0.27923315	-0.64658068	0.46833640	-0.17926849	-0.72100242	-0.08646433	0.17699932	-0.58895486	-0.33413746	-0.38329232	-0.65337361	-0.08301246	-0.46944699
2676	26.75000000	-0.93997450	-0.14201257	0.00309334	-0.65055911	0.13862867	-0.65589137	-0.49093074	-0.62973999	-0.20007817	-0.68730183	-0.39042047	0.28589547	-0.66948385	0.44529512	-0.15671923	-0.72083124	-0.08115160	0.17945906	-0.58836447	-0.33176322	-0.38370275	-0.63412475	-0.09268626	-0.49145263
2677	26.76000000	-0.94331073	-0.14219921	0.00248282	-0.64898654	0.13974028	-0.65057209	-0.48868999	-0.63435442	-0.20645666	-0.68680627	-0.39514560	0.28814521	-0.68859593	0.41893781	-0.13508501	-0.71496482	-0.06775767	0.18196291	-0.57998578	-0.32836897	-0.37978605	-0.61328107	-0.10558933	-0.51435030
2678	26.77000000	-0.93985725	-0.13791071	0.01101027	-0.64861556	0.13480354	-0.65269228	-0.48775324	-0.63822622	-0.20964376	-0.68309467	-0.40617383	0.29380469	-0.70694209	0.39476892	-0.11771030	-0.71417751	-0.05443805	0.18457927	-0.57486225	-0.32736586	-0.37883993	-0.59367651	-0.11095795	-0.53539473
2679	26.78000000	-0.94037193	-0.14177205	0.00494589	-0.64599242	0.13727870	-0.64871222	-0.47827438	-0.63719452	-0.20615628	-0.67437868	-0.40787100	0.29724559	-0.72123054	0.37121693	-0.09084190	-0.71562567	-0.04980009	0.18084630	-0.57224163	-0.33195434	-0.38378738	-0.57505109	-0.11570584	-0.55326922
2680	26.79000000	-0.94237766	-0.13899530	0.00903862	-0.64480810	0.13288584	-0.65874273	-0.46891194	-0.64134972	-0.20770083	-0.67470786	-0.41107305	0.29680127	-0.73625920	0.34856991	-0.07656271	-0.71589548	-0.03946311	0.18473648	-0.56274674	-0.32550624	-0.38105434	-0.55964923	-0.12839312	-0.56907413
2681	26.80000000	-0.93958523	-0.13604408	0.01551924	-0.64693793	0.12852817	-0.65664681	-0.46861627	-0.64403709	-0.21065582	-0.66856698	-0.42136133	0.29789129	-0.74665578	0.32466488	-0.05153449	-0.71404809	-0.02864162	0.17440793	-0.56286740	-0.32524744	-0.38226989	-0.54903809	-0.13275601	-0.58108554
2682	26.81000000	-0.94387625	-0.13355929	0.01146521	-0.64607404	0.13134270	-0.65166343	-0.46086493	-0.65090378	-0.21618956	-0.66355953	-0.41922665	0.30036764	-0.75223576	0.30328349	-0.03908908	-0.71673786	-0.02997565	0.17200267	-0.56077241	-0.33008086	-0.38355066	-0.53435312	-0.13844017	-0.59605758
2683	26.82000000	-0.94355662	-0.13502802	0.01103800	-0.63958466	0.13382934	-0.65540082	-0.45538472	-0.65732150	-0.21213955	-0.66131490	-0.42892210	0.30293829	-0.75831671	0.28438241	-0.02738976	-0.71302851	-0.01937399	0.16843344	-0.55463453	-0.32663125	-0.38423964	-0.52457912	-0.14674476	-0.60704346
2684	26.83000000	-0.94193922	-0.13310292	0.01277321	-0.63789717	0.13399727	-0.65632655	-0.44620411	-0.66224657	-0.21782957	-0.65571308	-0.43229965	0.30077257	-0.76504109	0.27045724	-0.01771836	-0.71321884	-0.01210914	0.16142291	-0.55080170	-0.32531875	-0.38971357	-0.51131166	-0.15394513	-0.61200091
2685	26.84000000	-0.94016455	-0.13734013	0.01335153	-0.64494192	0.13070414	-0.65756274	-0.43630796	-0.66462148	-0.22236436	-0.65111428	-0.44103243	0.29487908	-0.76901479	0.25571237	-0.00872937	-0.71110160	-0.00931657	0.15844290	-0.54675339	-0.32548167	-0.39513774	-0.50775729	-0.16557837	-0.60739178
2686	26.85000000	-0.94223305	-0.14177028	0.01509859	-0.64199408	0.12964531	-0.65684420	-0.43298614	-0.66885352	-0.22954393	-0.65448476	-0.43975920	0.29748541	-0.77017850	0.23969903	-0.00035892	-0.71169093	-0.00913941	0.16337820	-0.54612196	-0.32544133	-0.39600796	-0.50415320	-0.17617229	-0.61231658
